<svg xmlns="http://www.w3.org/2000/svg" viewBox="0 0 320 420" role="img" aria-label="Squat sumo">
  <defs><linearGradient id="g" x1="0" x2="1" y1="0" y2="1"><stop stop-color="#dff7ff"/><stop offset="1" stop-color="#ffffff"/></linearGradient></defs>
  <rect width="320" height="420" rx="32" fill="url(#g)"/>
  <circle cx="260" cy="64" r="38" fill="#0ea5e9" opacity="0.16"/><circle cx="58" cy="350" r="48" fill="#16a34a" opacity="0.15"/>
  <rect x="42" y="318" width="236" height="18" rx="9" fill="#cbd5e1" opacity="0.8"/>
  <g transform="translate(0,28)"><circle cx="160" cy="78" r="22" fill="#0f172a"/><path d="M160 102 L142 178 L178 178 Z" fill="#1f2937"/><circle cx="160" cy="178" r="8" fill="#0f172a"/><path d="M148 176 Q105 225 92 292" stroke="#0f172a" stroke-width="16" stroke-linecap="round" fill="none"/><path d="M174 176 Q218 225 230 292" stroke="#0f172a" stroke-width="16" stroke-linecap="round" fill="none"/><path d="M145 122 Q105 150 90 188" stroke="#0f172a" stroke-width="13" stroke-linecap="round" fill="none"/><path d="M175 122 Q215 150 230 188" stroke="#0f172a" stroke-width="13" stroke-linecap="round" fill="none"/></g>
  <rect x="24" y="24" width="88" height="28" rx="14" fill="#0ea5e9" opacity="0.95"/><text x="68" y="43" font-family="Arial, sans-serif" font-size="12" font-weight="700" text-anchor="middle" fill="white">FITVN</text>
  <text x="160" y="372" text-anchor="middle" font-family="Arial, sans-serif" font-size="18" font-weight="800" fill="#0f172a">Squat sumo</text>
  <text x="160" y="395" text-anchor="middle" font-family="Arial, sans-serif" font-size="12" font-weight="700" fill="#475569">mông • đùi</text>
</svg>