<svg xmlns="http://www.w3.org/2000/svg" viewBox="0 0 320 420" role="img" aria-label="Đấm gió">
  <defs><linearGradient id="g" x1="0" x2="1" y1="0" y2="1"><stop stop-color="#fee2e2"/><stop offset="1" stop-color="#ffffff"/></linearGradient></defs>
  <rect width="320" height="420" rx="32" fill="url(#g)"/>
  <circle cx="260" cy="64" r="38" fill="#ef4444" opacity="0.16"/><circle cx="58" cy="350" r="48" fill="#0284c7" opacity="0.15"/>
  <rect x="42" y="318" width="236" height="18" rx="9" fill="#cbd5e1" opacity="0.8"/>
  <g transform="translate(0,28)"><circle cx="160" cy="78" r="22" fill="#0f172a"/><path d="M160 102 L142 178 L178 178 Z" fill="#1f2937"/><path d="M145 120 L90 72" stroke="#0f172a" stroke-width="14" stroke-linecap="round"/><path d="M176 120 L232 74" stroke="#0f172a" stroke-width="14" stroke-linecap="round"/><path d="M150 178 L116 282" stroke="#0f172a" stroke-width="15" stroke-linecap="round"/><path d="M174 178 L224 260" stroke="#0f172a" stroke-width="15" stroke-linecap="round"/><path d="M82 50 Q160 18 238 50" stroke="#0284c7" stroke-width="8" stroke-dasharray="8 12" fill="none"/></g>
  <rect x="24" y="24" width="88" height="28" rx="14" fill="#ef4444" opacity="0.95"/><text x="68" y="43" font-family="Arial, sans-serif" font-size="12" font-weight="700" text-anchor="middle" fill="white">FITVN</text>
  <text x="160" y="372" text-anchor="middle" font-family="Arial, sans-serif" font-size="18" font-weight="800" fill="#0f172a">Đấm gió</text>
  <text x="160" y="395" text-anchor="middle" font-family="Arial, sans-serif" font-size="12" font-weight="700" fill="#475569">toàn thân</text>
</svg>