<svg xmlns="http://www.w3.org/2000/svg" viewBox="0 0 320 420" role="img" aria-label="Arnold press với tạ đơn">
  <defs><linearGradient id="g" x1="0" x2="1" y1="0" y2="1"><stop stop-color="#eef2ff"/><stop offset="1" stop-color="#ffffff"/></linearGradient></defs>
  <rect width="320" height="420" rx="32" fill="url(#g)"/>
  <circle cx="260" cy="64" r="38" fill="#4f46e5" opacity="0.16"/><circle cx="58" cy="350" r="48" fill="#0f766e" opacity="0.15"/>
  <rect x="42" y="318" width="236" height="18" rx="9" fill="#cbd5e1" opacity="0.8"/>
  <g transform="translate(0,28)"><circle cx="74" cy="190" r="14" fill="#111827"/><rect x="74" y="184" width="64" height="12" rx="6" fill="#111827"/><circle cx="138" cy="190" r="14" fill="#111827"/><circle cx="132" cy="136" r="20" fill="#0f172a"/><path d="M155 146 L238 180" stroke="#1f2937" stroke-width="22" stroke-linecap="round"/><path d="M212 174 L260 232" stroke="#0f172a" stroke-width="14" stroke-linecap="round"/><path d="M182 158 L152 218" stroke="#0f172a" stroke-width="14" stroke-linecap="round"/><path d="M240 182 L292 270" stroke="#0f172a" stroke-width="14" stroke-linecap="round"/><path d="M165 150 L98 190" stroke="#0f172a" stroke-width="14" stroke-linecap="round"/></g>
  <rect x="24" y="24" width="88" height="28" rx="14" fill="#4f46e5" opacity="0.95"/><text x="68" y="43" font-family="Arial, sans-serif" font-size="12" font-weight="700" text-anchor="middle" fill="white">FITVN</text>
  <text x="160" y="372" text-anchor="middle" font-family="Arial, sans-serif" font-size="18" font-weight="800" fill="#0f172a">Arnold press với tạ đơn</text>
  <text x="160" y="395" text-anchor="middle" font-family="Arial, sans-serif" font-size="12" font-weight="700" fill="#475569">ngực • vai • tay sau</text>
</svg>