<svg xmlns="http://www.w3.org/2000/svg" viewBox="0 0 320 420" role="img" aria-label="Kéo lưng ngồi với dây">
  <defs><linearGradient id="g" x1="0" x2="1" y1="0" y2="1"><stop stop-color="#ecfdf5"/><stop offset="1" stop-color="#ffffff"/></linearGradient></defs>
  <rect width="320" height="420" rx="32" fill="url(#g)"/>
  <circle cx="260" cy="64" r="38" fill="#059669" opacity="0.16"/><circle cx="58" cy="350" r="48" fill="#2563eb" opacity="0.15"/>
  <rect x="42" y="318" width="236" height="18" rx="9" fill="#cbd5e1" opacity="0.8"/>
  <g transform="translate(0,28)"><path d="M65 245 Q160 210 255 245" stroke="#2563eb" stroke-width="10" fill="none"/><circle cx="160" cy="78" r="22" fill="#0f172a"/><path d="M80 55 H240" stroke="#334155" stroke-width="12" stroke-linecap="round"/><path d="M135 62 Q145 120 148 185" stroke="#0f172a" stroke-width="14" stroke-linecap="round" fill="none"/><path d="M185 62 Q175 120 172 185" stroke="#0f172a" stroke-width="14" stroke-linecap="round" fill="none"/><path d="M160 102 L142 178 L178 178 Z" fill="#1f2937"/><path d="M150 178 L128 278" stroke="#0f172a" stroke-width="15" stroke-linecap="round"/><path d="M175 178 L202 278" stroke="#0f172a" stroke-width="15" stroke-linecap="round"/></g>
  <rect x="24" y="24" width="88" height="28" rx="14" fill="#059669" opacity="0.95"/><text x="68" y="43" font-family="Arial, sans-serif" font-size="12" font-weight="700" text-anchor="middle" fill="white">FITVN</text>
  <text x="160" y="372" text-anchor="middle" font-family="Arial, sans-serif" font-size="18" font-weight="800" fill="#0f172a">Kéo lưng ngồi với dây</text>
  <text x="160" y="395" text-anchor="middle" font-family="Arial, sans-serif" font-size="12" font-weight="700" fill="#475569">lưng • xô • tay trước</text>
</svg>